<svg width="25" height="24" viewBox="0 0 25 24" fill="none" xmlns="http://www.w3.org/2000/svg">
<path d="M12.0912 16.33C9.70799 16.33 7.77351 14.39 7.77351 12C7.77351 9.61 9.70799 7.67 12.0912 7.67C14.4744 7.67 16.4088 9.61 16.4088 12C16.4088 14.39 14.4744 16.33 12.0912 16.33ZM12.0912 9.17C10.5356 9.17 9.26924 10.44 9.26924 12C9.26924 13.56 10.5356 14.83 12.0912 14.83C13.6467 14.83 14.9131 13.56 14.9131 12C14.9131 10.44 13.6467 9.17 12.0912 9.17Z" fill="#323232"/>
<path d="M12.0912 21.02C8.34189 21.02 4.802 18.82 2.36895 15C1.31197 13.35 1.31197 10.66 2.36895 9C4.81197 5.18 8.35186 2.98 12.0912 2.98C15.8305 2.98 19.3704 5.18 21.8034 9C22.8604 10.65 22.8604 13.34 21.8034 15C19.3704 18.82 15.8305 21.02 12.0912 21.02ZM12.0912 4.48C8.87038 4.48 5.78918 6.42 3.63533 9.81C2.88747 10.98 2.88747 13.02 3.63533 14.19C5.78918 17.58 8.87038 19.52 12.0912 19.52C15.312 19.52 18.3932 17.58 20.547 14.19C21.2949 13.02 21.2949 10.98 20.547 9.81C18.3932 6.42 15.312 4.48 12.0912 4.48Z" fill="#323232"/>
</svg>
